BenchNine-Light.ufo
<glyph name="exclam" format="1">
  <advance width="322"/>
  <unicode hex="0021"/>
  <outline>
    <contour>
      <point x="116" y="0" type="curve" smooth="yes"/>
      <point x="208" y="0" type="line" smooth="yes"/>
      <point x="223" y="0"/>
      <point x="234" y="12"/>
      <point x="234" y="55" type="curve" smooth="yes"/>
      <point x="234" y="164" type="line" smooth="yes"/>
      <point x="234" y="207"/>
      <point x="223" y="219"/>
      <point x="208" y="219" type="curve" smooth="yes"/>
      <point x="116" y="219" type="line" smooth="yes"/>
      <point x="102" y="219"/>
      <point x="90" y="207"/>
      <point x="90" y="164" type="curve" smooth="yes"/>
      <point x="90" y="55" type="line" smooth="yes"/>
      <point x="90" y="12"/>
      <point x="102" y="0"/>
    </contour>
    <contour>
      <point x="155" y="388" type="curve" smooth="yes"/>
      <point x="168" y="388" type="line" smooth="yes"/>
      <point x="183" y="388"/>
      <point x="184" y="414"/>
      <point x="186" y="457" type="curve" smooth="yes"/>
      <point x="224" y="1389" type="line" smooth="yes"/>
      <point x="224" y="1397" type="line" smooth="yes"/>
      <point x="224" y="1435"/>
      <point x="210" y="1458"/>
      <point x="196" y="1458" type="curve" smooth="yes"/>
      <point x="125" y="1458" type="line" smooth="yes"/>
      <point x="110" y="1458"/>
      <point x="98" y="1436"/>
      <point x="98" y="1398" type="curve" smooth="yes"/>
      <point x="98" y="1389" type="line" smooth="yes"/>
      <point x="137" y="457" type="line" smooth="yes"/>
      <point x="139" y="414"/>
      <point x="140" y="388"/>
    </contour>
  </outline>
</glyph>
<glyph name="quotedbl" format="1">
  <advance width="426"/>
  <unicode hex="0022"/>
  <outline>
    <contour>
      <point x="104" y="800" type="curve" smooth="yes"/>
      <point x="123" y="800" type="line" smooth="yes"/>
      <point x="138" y="800"/>
      <point x="139" y="823"/>
      <point x="141" y="861" type="curve" smooth="yes"/>
      <point x="167" y="1388" type="line" smooth="yes"/>
      <point x="167" y="1393" type="line" smooth="yes"/>
      <point x="167" y="1426"/>
      <point x="158" y="1458"/>
      <point x="144" y="1458" type="curve" smooth="yes"/>
      <point x="81" y="1458" type="line" smooth="yes"/>
      <point x="68" y="1458"/>
      <point x="57" y="1429"/>
      <point x="57" y="1397" type="curve" smooth="yes"/>
      <point x="57" y="1389" type="line" smooth="yes"/>
      <point x="86" y="861" type="line" smooth="yes"/>
      <point x="88" y="823"/>
      <point x="90" y="800"/>
    </contour>
    <contour>
      <point x="304" y="800" type="curve" smooth="yes"/>
      <point x="323" y="800" type="line" smooth="yes"/>
      <point x="338" y="800"/>
      <point x="339" y="823"/>
      <point x="341" y="861" type="curve" smooth="yes"/>
      <point x="367" y="1388" type="line" smooth="yes"/>
      <point x="367" y="1393" type="line" smooth="yes"/>
      <point x="367" y="1426"/>
      <point x="358" y="1458"/>
      <point x="344" y="1458" type="curve" smooth="yes"/>
      <point x="282" y="1458" type="line" smooth="yes"/>
      <point x="268" y="1458"/>
      <point x="257" y="1429"/>
      <point x="257" y="1397" type="curve" smooth="yes"/>
      <point x="257" y="1389" type="line" smooth="yes"/>
      <point x="286" y="861" type="line" smooth="yes"/>
      <point x="288" y="823"/>
      <point x="290" y="800"/>
    </contour>
  </outline>
</glyph>
<glyph name="quotesingle" format="1">
  <advance width="374"/>
  <unicode hex="0027"/>
  <outline>
    <contour>
      <point x="178" y="800" type="curve" smooth="yes"/>
      <point x="197" y="800" type="line" smooth="yes"/>
      <point x="212" y="800"/>
      <point x="213" y="823"/>
      <point x="215" y="861" type="curve" smooth="yes"/>
      <point x="241" y="1388" type="line" smooth="yes"/>
      <point x="241" y="1393" type="line" smooth="yes"/>
      <point x="241" y="1426"/>
      <point x="232" y="1458"/>
      <point x="218" y="1458" type="curve" smooth="yes"/>
      <point x="156" y="1458" type="line" smooth="yes"/>
      <point x="143" y="1458"/>
      <point x="132" y="1430"/>
      <point x="132" y="1399" type="curve" smooth="yes"/>
      <point x="132" y="1389" type="line" smooth="yes"/>
      <point x="160" y="861" type="line" smooth="yes"/>
      <point x="162" y="823"/>
      <point x="164" y="800"/>
    </contour>
  </outline>
</glyph>
<glyph name="parenleft" format="1">
  <advance width="398"/>
  <unicode hex="0028"/>
  <outline>
    <contour>
      <point x="282" y="-143" type="curve" smooth="yes"/>
      <point x="283" y="-144"/>
      <point x="284" y="-144"/>
      <point x="285" y="-144" type="curve" smooth="yes"/>
      <point x="297" y="-144"/>
      <point x="308" y="-108"/>
      <point x="308" y="-73" type="curve" smooth="yes"/>
      <point x="308" y="-39" type="line" smooth="yes"/>
      <point x="308" y="30"/>
      <point x="297" y="35"/>
      <point x="275" y="66" type="curve"/>
      <point x="231" y="132"/>
      <point x="190" y="280"/>
      <point x="190" y="699" type="curve" smooth="yes"/>
      <point x="190" y="1118"/>
      <point x="230" y="1264"/>
      <point x="274" y="1330" type="curve" smooth="yes"/>
      <point x="295" y="1361"/>
      <point x="308" y="1365"/>
      <point x="308" y="1434" type="curve" smooth="yes"/>
      <point x="308" y="1470" type="line" smooth="yes"/>
      <point x="308" y="1505"/>
      <point x="297" y="1541"/>
      <point x="285" y="1541" type="curve" smooth="yes"/>
      <point x="284" y="1541"/>
      <point x="283" y="1541"/>
      <point x="282" y="1540" type="curve" smooth="yes"/>
      <point x="143" y="1468"/>
      <point x="96" y="1100"/>
      <point x="96" y="699" type="curve" smooth="yes"/>
      <point x="96" y="299"/>
      <point x="143" y="-70"/>
    </contour>
  </outline>
</glyph>
<glyph name="period" format="1">
  <advance width="303"/>
  <unicode hex="002E"/>
  <outline>
    <contour>
      <point x="108" y="0" type="curve" smooth="yes"/>
      <point x="200" y="0" type="line" smooth="yes"/>
      <point x="215" y="0"/>
      <point x="226" y="12"/>
      <point x="226" y="55" type="curve" smooth="yes"/>
      <point x="226" y="164" type="line" smooth="yes"/>
      <point x="226" y="207"/>
      <point x="215" y="219"/>
      <point x="200" y="219" type="curve" smooth="yes"/>
      <point x="108" y="219" type="line" smooth="yes"/>
      <point x="93" y="219"/>
      <point x="81" y="207"/>
      <point x="81" y="164" type="curve" smooth="yes"/>
      <point x="81" y="55" type="line" smooth="yes"/>
      <point x="81" y="12"/>
      <point x="93" y="0"/>
    </contour>
  </outline>
</glyph>
<glyph name="eight" format="1">
  <advance width="811"/>
  <unicode hex="0038"/>
  <outline>
    <contour>
      <point x="515" y="759" type="curve"/>
      <point x="284" y="831"/>
      <point x="228" y="858"/>
      <point x="228" y="1042" type="curve" smooth="yes"/>
      <point x="229" y="1263"/>
      <point x="285" y="1361"/>
      <point x="407" y="1361" type="curve" smooth="yes"/>
      <point x="519" y="1361"/>
      <point x="583" y="1278"/>
      <point x="583" y="1035" type="curve" smooth="yes"/>
      <point x="583" y="911"/>
      <point x="535" y="800"/>
    </contour>
    <contour>
      <point x="406" y="-13" type="curve" smooth="yes"/>
      <point x="579" y="-13"/>
      <point x="715" y="73"/>
      <point x="715" y="399" type="curve" smooth="yes"/>
      <point x="715" y="564"/>
      <point x="664" y="665"/>
      <point x="583" y="718" type="curve"/>
      <point x="623" y="772"/>
      <point x="682" y="895"/>
      <point x="682" y="1040" type="curve" smooth="yes"/>
      <point x="682" y="1339"/>
      <point x="575" y="1451"/>
      <point x="406" y="1451" type="curve" smooth="yes"/>
      <point x="238" y="1451"/>
      <point x="125" y="1339"/>
      <point x="125" y="1062" type="curve" smooth="yes"/>
      <point x="125" y="884"/>
      <point x="170" y="821"/>
      <point x="219" y="780" type="curve"/>
      <point x="173" y="726"/>
      <point x="97" y="576"/>
      <point x="97" y="412" type="curve" smooth="yes"/>
      <point x="97" y="82"/>
      <point x="234" y="-13"/>
    </contour>
    <contour>
      <point x="408" y="89" type="curve" smooth="yes"/>
      <point x="277" y="89"/>
      <point x="201" y="168"/>
      <point x="201" y="420" type="curve" smooth="yes"/>
      <point x="201" y="512"/>
      <point x="243" y="671"/>
      <point x="286" y="738" type="curve"/>
      <point x="548" y="656"/>
      <point x="609" y="612"/>
      <point x="609" y="416" type="curve" smooth="yes"/>
      <point x="609" y="164"/>
      <point x="538" y="89"/>
    </contour>
  </outline>
</glyph>
<glyph name="A" format="1">
  <advance width="764"/>
  <unicode hex="0041"/>
  <outline>
    <contour>
      <point x="72" y="0" type="curve" smooth="yes"/>
      <point x="130" y="0" type="line" smooth="yes"/>
      <point x="147" y="0"/>
      <point x="157" y="9"/>
      <point x="165" y="50" type="curve" smooth="yes"/>
      <point x="217" y="336" type="line" smooth="yes"/>
      <point x="218" y="340"/>
      <point x="220" y="347"/>
      <point x="222" y="347" type="curve" smooth="yes"/>
      <point x="535" y="347" type="line" smooth="yes"/>
      <point x="537" y="347"/>
      <point x="540" y="341"/>
      <point x="541" y="337" type="curve" smooth="yes"/>
      <point x="586" y="49" type="line" smooth="yes"/>
      <point x="593" y="8"/>
      <point x="611" y="0"/>
      <point x="626" y="0" type="curve" smooth="yes"/>
      <point x="697" y="0" type="line" smooth="yes"/>
      <point x="707" y="0"/>
      <point x="712" y="9"/>
      <point x="712" y="30" type="curve" smooth="yes"/>
      <point x="712" y="40"/>
      <point x="708" y="44"/>
      <point x="706" y="56" type="curve" smooth="yes"/>
      <point x="472" y="1383" type="line" smooth="yes"/>
      <point x="465" y="1424"/>
      <point x="453" y="1436"/>
      <point x="437" y="1438" type="curve"/>
      <point x="342" y="1438" type="line"/>
      <point x="326" y="1436"/>
      <point x="314" y="1424"/>
      <point x="306" y="1383" type="curve" smooth="yes"/>
      <point x="58" y="56" type="line" smooth="yes"/>
      <point x="57" y="50"/>
      <point x="57" y="46"/>
      <point x="57" y="42" type="curve" smooth="yes"/>
      <point x="57" y="31" type="line" smooth="yes"/>
      <point x="57" y="9"/>
      <point x="63" y="0"/>
    </contour>
    <contour>
      <point x="251" y="427" type="line" smooth="yes"/>
      <point x="244" y="427"/>
      <point x="241" y="434"/>
      <point x="241" y="438" type="curve" smooth="yes"/>
      <point x="241" y="439"/>
      <point x="241" y="442"/>
      <point x="242" y="447" type="curve" smooth="yes"/>
      <point x="385" y="1296" type="line" smooth="yes"/>
      <point x="385" y="1297"/>
      <point x="385" y="1300"/>
      <point x="387" y="1300" type="curve" smooth="yes"/>
      <point x="388" y="1300"/>
      <point x="388" y="1298"/>
      <point x="389" y="1296" type="curve" smooth="yes"/>
      <point x="522" y="442" type="line"/>
      <point x="524" y="441"/>
      <point x="524" y="438"/>
      <point x="524" y="436" type="curve" smooth="yes"/>
      <point x="524" y="432"/>
      <point x="523" y="427"/>
      <point x="520" y="427" type="curve" smooth="yes"/>
    </contour>
  </outline>
</glyph>
<glyph name="E" format="1">
  <advance width="688"/>
  <unicode hex="0045"/>
  <outline>
    <contour>
      <point x="131" y="0" type="curve" smooth="yes"/>
      <point x="599" y="0" type="line" smooth="yes"/>
      <point x="613" y="0"/>
      <point x="622" y="1"/>
      <point x="622" y="31" type="curve" smooth="yes"/>
      <point x="622" y="59" type="line" smooth="yes"/>
      <point x="622" y="90"/>
      <point x="613" y="90"/>
      <point x="599" y="90" type="curve" smooth="yes"/>
      <point x="220" y="90" type="line"/>
      <point x="220" y="673" type="line" smooth="yes"/>
      <point x="220" y="677"/>
      <point x="226" y="694"/>
      <point x="227" y="694" type="curve" smooth="yes"/>
      <point x="545" y="694" type="line" smooth="yes"/>
      <point x="560" y="694"/>
      <point x="568" y="697"/>
      <point x="568" y="727" type="curve" smooth="yes"/>
      <point x="568" y="756" type="line" smooth="yes"/>
      <point x="568" y="784"/>
      <point x="560" y="787"/>
      <point x="545" y="787" type="curve" smooth="yes"/>
      <point x="226" y="787" type="line" smooth="yes"/>
      <point x="225" y="787"/>
      <point x="220" y="797"/>
      <point x="220" y="801" type="curve" smooth="yes"/>
      <point x="220" y="1320" type="line" smooth="yes"/>
      <point x="220" y="1340"/>
      <point x="222" y="1348"/>
      <point x="230" y="1348" type="curve" smooth="yes"/>
      <point x="597" y="1348" type="line" smooth="yes"/>
      <point x="611" y="1348"/>
      <point x="620" y="1348"/>
      <point x="620" y="1379" type="curve" smooth="yes"/>
      <point x="620" y="1407" type="line" smooth="yes"/>
      <point x="620" y="1437"/>
      <point x="611" y="1438"/>
      <point x="597" y="1438" type="curve" smooth="yes"/>
      <point x="131" y="1438" type="line" smooth="yes"/>
      <point x="116" y="1438"/>
      <point x="108" y="1433"/>
      <point x="108" y="1403" type="curve" smooth="yes"/>
      <point x="108" y="35" type="line" smooth="yes"/>
      <point x="108" y="1"/>
      <point x="116" y="0"/>
    </contour>
  </outline>
</glyph>
<glyph name="F" format="1">
  <advance width="633"/>
  <unicode hex="0046"/>
  <outline>
    <contour>
      <point x="131" y="0" type="curve" smooth="yes"/>
      <point x="197" y="0" type="line" smooth="yes"/>
      <point x="212" y="0"/>
      <point x="220" y="1"/>
      <point x="220" y="35" type="curve" smooth="yes"/>
      <point x="220" y="668" type="line" smooth="yes"/>
      <point x="220" y="672"/>
      <point x="226" y="687"/>
      <point x="227" y="687" type="curve" smooth="yes"/>
      <point x="526" y="687" type="line" smooth="yes"/>
      <point x="541" y="687"/>
      <point x="549" y="688"/>
      <point x="549" y="718" type="curve" smooth="yes"/>
      <point x="549" y="751" type="line" smooth="yes"/>
      <point x="549" y="779"/>
      <point x="541" y="780"/>
      <point x="526" y="780" type="curve" smooth="yes"/>
      <point x="226" y="780" type="line" smooth="yes"/>
      <point x="225" y="780"/>
      <point x="220" y="788"/>
      <point x="220" y="792" type="curve" smooth="yes"/>
      <point x="220" y="1322" type="line" smooth="yes"/>
      <point x="220" y="1342"/>
      <point x="222" y="1348"/>
      <point x="230" y="1348" type="curve" smooth="yes"/>
      <point x="575" y="1348" type="line" smooth="yes"/>
      <point x="589" y="1348"/>
      <point x="598" y="1348"/>
      <point x="598" y="1379" type="curve" smooth="yes"/>
      <point x="598" y="1407" type="line" smooth="yes"/>
      <point x="598" y="1437"/>
      <point x="589" y="1438"/>
      <point x="575" y="1438" type="curve" smooth="yes"/>
      <point x="131" y="1438" type="line" smooth="yes"/>
      <point x="116" y="1438"/>
      <point x="108" y="1433"/>
      <point x="108" y="1403" type="curve" smooth="yes"/>
      <point x="108" y="35" type="line" smooth="yes"/>
      <point x="108" y="1"/>
      <point x="116" y="0"/>
    </contour>
  </outline>
</glyph>
<glyph name="J" format="1">
  <advance width="471"/>
  <unicode hex="004A"/>
  <outline>
    <contour>
      <point x="31" y="-145" type="curve" smooth="yes"/>
      <point x="237" y="-145"/>
      <point x="357" y="-137"/>
      <point x="357" y="384" type="curve" smooth="yes"/>
      <point x="357" y="1387" type="line" smooth="yes"/>
      <point x="357" y="1425"/>
      <point x="349" y="1438"/>
      <point x="336" y="1438" type="curve" smooth="yes"/>
      <point x="266" y="1438" type="line" smooth="yes"/>
      <point x="253" y="1438"/>
      <point x="245" y="1425"/>
      <point x="245" y="1387" type="curve" smooth="yes"/>
      <point x="245" y="400" type="line" smooth="yes"/>
      <point x="245" y="-30"/>
      <point x="190" y="-38"/>
      <point x="31" y="-40" type="curve" smooth="yes"/>
      <point x="26" y="-40"/>
      <point x="20" y="-44"/>
      <point x="20" y="-67" type="curve" smooth="yes"/>
      <point x="20" y="-120" type="line" smooth="yes"/>
      <point x="20" y="-142"/>
      <point x="25" y="-145"/>
    </contour>
  </outline>
</glyph>
<glyph name="L" format="1">
  <advance width="574"/>
  <unicode hex="004C"/>
  <outline>
    <contour>
      <point x="131" y="0" type="curve" smooth="yes"/>
      <point x="500" y="0" type="line" smooth="yes"/>
      <point x="514" y="0"/>
      <point x="524" y="1"/>
      <point x="524" y="31" type="curve" smooth="yes"/>
      <point x="524" y="61" type="line" smooth="yes"/>
      <point x="524" y="90"/>
      <point x="514" y="90"/>
      <point x="500" y="90" type="curve" smooth="yes"/>
      <point x="234" y="90" type="line" smooth="yes"/>
      <point x="226" y="90"/>
      <point x="220" y="90"/>
      <point x="220" y="110" type="curve" smooth="yes"/>
      <point x="220" y="1391" type="line" smooth="yes"/>
      <point x="220" y="1434"/>
      <point x="212" y="1438"/>
      <point x="197" y="1438" type="curve" smooth="yes"/>
      <point x="131" y="1438" type="line" smooth="yes"/>
      <point x="116" y="1438"/>
      <point x="108" y="1434"/>
      <point x="108" y="1391" type="curve" smooth="yes"/>
      <point x="108" y="47" type="line" smooth="yes"/>
      <point x="108" y="4"/>
      <point x="116" y="0"/>
    </contour>
  </outline>
</glyph>
<glyph name="Q" format="1">
  <advance width="934"/>
  <unicode hex="0051"/>
  <outline>
    <contour>
      <point x="590" y="-318" type="line" smooth="yes"/>
      <point x="597" y="-346"/>
      <point x="605" y="-359"/>
      <point x="621" y="-359" type="curve" smooth="yes"/>
      <point x="633" y="-359"/>
      <point x="658" y="-351"/>
      <point x="671" y="-347" type="curve" smooth="yes"/>
      <point x="697" y="-339"/>
      <point x="691" y="-329"/>
      <point x="683" y="-298" type="curve"/>
      <point x="683" y="-290"/>
      <point x="611" y="-19"/>
      <point x="607" y="2" type="curve"/>
      <point x="769" y="52"/>
      <point x="845" y="216"/>
      <point x="845" y="723" type="curve" smooth="yes"/>
      <point x="845" y="1321"/>
      <point x="720" y="1452"/>
      <point x="466" y="1452" type="curve" smooth="yes"/>
      <point x="216" y="1452"/>
      <point x="89" y="1313"/>
      <point x="89" y="723" type="curve" smooth="yes"/>
      <point x="89" y="106"/>
      <point x="209" y="-9"/>
      <point x="452" y="-14" type="curve" smooth="yes"/>
      <point x="470" y="-14"/>
      <point x="499" y="-12"/>
      <point x="508" y="-10" type="curve"/>
    </contour>
    <contour>
      <point x="466" y="79" type="curve" smooth="yes"/>
      <point x="298" y="79"/>
      <point x="204" y="162"/>
      <point x="204" y="723" type="curve" smooth="yes"/>
      <point x="204" y="1230"/>
      <point x="293" y="1358"/>
      <point x="466" y="1358" type="curve" smooth="yes"/>
      <point x="641" y="1358"/>
      <point x="730" y="1247"/>
      <point x="730" y="723" type="curve" smooth="yes"/>
      <point x="730" y="151"/>
      <point x="637" y="79"/>
    </contour>
  </outline>
</glyph>
<glyph name="R" format="1">
  <advance width="873"/>
  <unicode hex="0052"/>
  <outline>
    <contour>
      <point x="131" y="0" type="curve" smooth="yes"/>
      <point x="197" y="0" type="line" smooth="yes"/>
      <point x="213" y="0"/>
      <point x="220" y="6"/>
      <point x="220" y="43" type="curve" smooth="yes"/>
      <point x="220" y="688" type="line" smooth="yes"/>
      <point x="220" y="699"/>
      <point x="223" y="704"/>
      <point x="229" y="704" type="curve" smooth="yes"/>
      <point x="460" y="704" type="line" smooth="yes"/>
      <point x="538" y="704"/>
      <point x="659" y="675"/>
      <point x="659" y="498" type="curve" smooth="yes"/>
      <point x="659" y="171" type="line" smooth="yes"/>
      <point x="659" y="52" type="line" smooth="yes"/>
      <point x="659" y="14"/>
      <point x="665" y="0"/>
      <point x="680" y="0" type="curve" smooth="yes"/>
      <point x="748" y="0" type="line" smooth="yes"/>
      <point x="760" y="0"/>
      <point x="771" y="16"/>
      <point x="771" y="54" type="curve" smooth="yes"/>
      <point x="771" y="465" type="line"/>
      <point x="768" y="681"/>
      <point x="677" y="714"/>
      <point x="602" y="749" type="curve"/>
      <point x="598" y="749"/>
      <point x="597" y="751"/>
      <point x="597" y="753" type="curve" smooth="yes"/>
      <point x="597" y="756"/>
      <point x="600" y="759"/>
      <point x="603" y="761" type="curve" smooth="yes"/>
      <point x="705" y="804"/>
      <point x="774" y="881"/>
      <point x="774" y="1082" type="curve" smooth="yes"/>
      <point x="774" y="1416"/>
      <point x="597" y="1438"/>
      <point x="394" y="1438" type="curve" smooth="yes"/>
      <point x="131" y="1438" type="line" smooth="yes"/>
      <point x="116" y="1438"/>
      <point x="108" y="1436"/>
      <point x="108" y="1393" type="curve" smooth="yes"/>
      <point x="108" y="43" type="line" smooth="yes"/>
      <point x="108" y="5"/>
      <point x="116" y="0"/>
    </contour>
    <contour>
      <point x="228" y="793" type="line" smooth="yes"/>
      <point x="222" y="793"/>
      <point x="220" y="800"/>
      <point x="220" y="808" type="curve" smooth="yes"/>
      <point x="220" y="1335" type="line" smooth="yes"/>
      <point x="220" y="1344"/>
      <point x="223" y="1348"/>
      <point x="228" y="1348" type="curve" smooth="yes"/>
      <point x="377" y="1348" type="line" smooth="yes"/>
      <point x="551" y="1348"/>
      <point x="659" y="1316"/>
      <point x="659" y="1079" type="curve" smooth="yes"/>
      <point x="659" y="852"/>
      <point x="577" y="793"/>
      <point x="405" y="793" type="curve" smooth="yes"/>
    </contour>
  </outline>
</glyph>
<glyph name="T" format="1">
  <advance width="598"/>
  <unicode hex="0054"/>
  <outline>
    <contour>
      <point x="270" y="0" type="curve" smooth="yes"/>
      <point x="335" y="0" type="line" smooth="yes"/>
      <point x="350" y="0"/>
      <point x="359" y="4"/>
      <point x="359" y="47" type="curve" smooth="yes"/>
      <point x="359" y="1317" type="line" smooth="yes"/>
      <point x="359" y="1337"/>
      <point x="362" y="1342"/>
      <point x="369" y="1342" type="curve" smooth="yes"/>
      <point x="547" y="1342" type="line" smooth="yes"/>
      <point x="562" y="1342"/>
      <point x="570" y="1342"/>
      <point x="570" y="1373" type="curve" smooth="yes"/>
      <point x="570" y="1401" type="line" smooth="yes"/>
      <point x="570" y="1437"/>
      <point x="562" y="1438"/>
      <point x="547" y="1438" type="curve" smooth="yes"/>
      <point x="56" y="1438" type="line" smooth="yes"/>
      <point x="41" y="1438"/>
      <point x="32" y="1437"/>
      <point x="32" y="1401" type="curve" smooth="yes"/>
      <point x="32" y="1373" type="line" smooth="yes"/>
      <point x="32" y="1342"/>
      <point x="41" y="1342"/>
      <point x="56" y="1342" type="curve" smooth="yes"/>
      <point x="237" y="1342" type="line" smooth="yes"/>
      <point x="244" y="1342"/>
      <point x="247" y="1337"/>
      <point x="247" y="1317" type="curve" smooth="yes"/>
      <point x="247" y="47" type="line" smooth="yes"/>
      <point x="247" y="4"/>
      <point x="256" y="0"/>
    </contour>
  </outline>
</glyph>
<glyph name="a" format="1">
  <advance width="669"/>
  <unicode hex="0061"/>
  <outline>
    <contour>
      <point x="277" y="-12" type="curve" smooth="yes"/>
      <point x="403" y="-12"/>
      <point x="465" y="74"/>
      <point x="493" y="206" type="curve" smooth="yes"/>
      <point x="495" y="215"/>
      <point x="500" y="212"/>
      <point x="501" y="206" type="curve" smooth="yes"/>
      <point x="502" y="170"/>
      <point x="522" y="68"/>
      <point x="525" y="38" type="curve"/>
      <point x="529" y="15"/>
      <point x="538" y="-3"/>
      <point x="549" y="-3" type="curve" smooth="yes"/>
      <point x="563" y="-3" type="line" smooth="yes"/>
      <point x="575" y="-3"/>
      <point x="582" y="12"/>
      <point x="582" y="47" type="curve" smooth="yes"/>
      <point x="582" y="640" type="line" smooth="yes"/>
      <point x="582" y="909"/>
      <point x="510" y="1018"/>
      <point x="345" y="1018" type="curve" smooth="yes"/>
      <point x="188" y="1018"/>
      <point x="131" y="934"/>
      <point x="97" y="820" type="curve" smooth="yes"/>
      <point x="92" y="805"/>
      <point x="89" y="781"/>
      <point x="92" y="775" type="curve"/>
      <point x="95" y="762"/>
      <point x="134" y="751"/>
      <point x="148" y="748" type="curve"/>
      <point x="161" y="744"/>
      <point x="169" y="751"/>
      <point x="178" y="776" type="curve" smooth="yes"/>
      <point x="209" y="868"/>
      <point x="236" y="934"/>
      <point x="343" y="934" type="curve" smooth="yes"/>
      <point x="459" y="934"/>
      <point x="476" y="816"/>
      <point x="476" y="668" type="curve" smooth="yes"/>
      <point x="476" y="610" type="line"/>
      <point x="421" y="589"/>
      <point x="73" y="596"/>
      <point x="73" y="238" type="curve" smooth="yes"/>
      <point x="73" y="86"/>
      <point x="135" y="-12"/>
    </contour>
    <contour>
      <point x="293" y="70" type="curve" smooth="yes"/>
      <point x="201" y="70"/>
      <point x="167" y="138"/>
      <point x="167" y="248" type="curve" smooth="yes"/>
      <point x="167" y="378"/>
      <point x="215" y="488"/>
      <point x="412" y="527" type="curve" smooth="yes"/>
      <point x="415" y="528"/>
      <point x="471" y="536"/>
      <point x="472" y="536" type="curve" smooth="yes"/>
      <point x="478" y="536"/>
      <point x="478" y="487"/>
      <point x="478" y="473" type="curve" smooth="yes"/>
      <point x="478" y="252"/>
      <point x="421" y="70"/>
    </contour>
  </outline>
</glyph>
<glyph name="i" format="1">
  <advance width="310"/>
  <unicode hex="0069"/>
  <outline>
    <contour>
      <point x="122" y="1174" type="curve" smooth="yes"/>
      <point x="198" y="1174" type="line" smooth="yes"/>
      <point x="213" y="1174"/>
      <point x="221" y="1180"/>
      <point x="221" y="1223" type="curve" smooth="yes"/>
      <point x="221" y="1295" type="line" smooth="yes"/>
      <point x="221" y="1338"/>
      <point x="213" y="1344"/>
      <point x="198" y="1344" type="curve" smooth="yes"/>
      <point x="122" y="1344" type="line" smooth="yes"/>
      <point x="107" y="1344"/>
      <point x="99" y="1338"/>
      <point x="99" y="1295" type="curve" smooth="yes"/>
      <point x="99" y="1223" type="line" smooth="yes"/>
      <point x="99" y="1180"/>
      <point x="107" y="1174"/>
    </contour>
    <contour>
      <point x="130" y="0" type="curve" smooth="yes"/>
      <point x="190" y="0" type="line" smooth="yes"/>
      <point x="205" y="0"/>
      <point x="213" y="10"/>
      <point x="213" y="53" type="curve" smooth="yes"/>
      <point x="213" y="953" type="line" smooth="yes"/>
      <point x="213" y="996"/>
      <point x="205" y="1006"/>
      <point x="190" y="1006" type="curve" smooth="yes"/>
      <point x="130" y="1006" type="line" smooth="yes"/>
      <point x="115" y="1006"/>
      <point x="107" y="996"/>
      <point x="107" y="953" type="curve" smooth="yes"/>
      <point x="107" y="53" type="line" smooth="yes"/>
      <point x="107" y="10"/>
      <point x="115" y="0"/>
    </contour>
  </outline>
</glyph>
<glyph name="o" format="1">
  <advance width="702"/>
  <unicode hex="006F"/>
  <outline>
    <contour>
      <point x="352" y="73" type="curve" smooth="yes"/>
      <point x="260" y="73"/>
      <point x="188" y="134"/>
      <point x="188" y="504" type="curve" smooth="yes"/>
      <point x="188" y="888"/>
      <point x="265" y="934"/>
      <point x="352" y="934" type="curve" smooth="yes"/>
      <point x="438" y="934"/>
      <point x="515" y="890"/>
      <point x="515" y="504" type="curve" smooth="yes"/>
      <point x="515" y="131"/>
      <point x="442" y="73"/>
    </contour>
    <contour>
      <point x="353" y="-12" type="curve" smooth="yes"/>
      <point x="478" y="-12"/>
      <point x="622" y="53"/>
      <point x="622" y="504" type="curve" smooth="yes"/>
      <point x="622" y="962"/>
      <point x="485" y="1019"/>
      <point x="353" y="1019" type="curve" smooth="yes"/>
      <point x="220" y="1019"/>
      <point x="80" y="962"/>
      <point x="80" y="504" type="curve" smooth="yes"/>
      <point x="80" y="52"/>
      <point x="226" y="-12"/>
    </contour>
  </outline>
</glyph>
<glyph name="y" format="1">
  <advance width="598"/>
  <unicode hex="0079"/>
  <outline>
    <contour>
      <point x="111" y="-199" type="curve" smooth="yes"/>
      <point x="111" y="-246"/>
      <point x="160" y="-259"/>
      <point x="210" y="-259" type="curve" smooth="yes"/>
      <point x="310" y="-259"/>
      <point x="334" y="-192"/>
      <point x="370" y="11" type="curve"/>
      <point x="549" y="943" type="line" smooth="yes"/>
      <point x="550" y="950"/>
      <point x="552" y="958"/>
      <point x="552" y="965" type="curve" smooth="yes"/>
      <point x="552" y="991"/>
      <point x="545" y="1006"/>
      <point x="535" y="1006" type="curve" smooth="yes"/>
      <point x="477" y="1006" type="line" smooth="yes"/>
      <point x="462" y="1006"/>
      <point x="453" y="993"/>
      <point x="446" y="950" type="curve" smooth="yes"/>
      <point x="326" y="208" type="line" smooth="yes"/>
      <point x="325" y="201"/>
      <point x="324" y="197"/>
      <point x="322" y="197" type="curve" smooth="yes"/>
      <point x="320" y="197"/>
      <point x="319" y="201"/>
      <point x="317" y="207" type="curve" smooth="yes"/>
      <point x="162" y="953" type="line" smooth="yes"/>
      <point x="154" y="995"/>
      <point x="143" y="1006"/>
      <point x="127" y="1006" type="curve" smooth="yes"/>
      <point x="67" y="1006" type="line" smooth="yes"/>
      <point x="58" y="1006"/>
      <point x="51" y="992"/>
      <point x="51" y="969" type="curve" smooth="yes"/>
      <point x="51" y="962"/>
      <point x="52" y="954"/>
      <point x="53" y="947" type="curve" smooth="yes"/>
      <point x="250" y="117" type="line" smooth="yes"/>
      <point x="259" y="79"/>
      <point x="269" y="39"/>
      <point x="269" y="8" type="curve" smooth="yes"/>
      <point x="269" y="-75"/>
      <point x="246" y="-167"/>
      <point x="206" y="-167" type="curve" smooth="yes"/>
      <point x="180" y="-167"/>
      <point x="143" y="-154"/>
      <point x="133" y="-151" type="curve"/>
      <point x="126" y="-150"/>
      <point x="111" y="-163"/>
    </contour>
  </outline>
</glyph>
<glyph name="ordfeminine" format="1">
  <advance width="669"/>
  <unicode hex="00AA"/>
  <outline>
    <contour>
      <point x="287" y="614" type="curve" smooth="yes"/>
      <point x="388" y="614"/>
      <point x="438" y="682"/>
      <point x="460" y="788" type="curve" smooth="yes"/>
      <point x="462" y="795"/>
      <point x="465" y="793"/>
      <point x="466" y="788" type="curve" smooth="yes"/>
      <point x="467" y="759"/>
      <point x="484" y="678"/>
      <point x="486" y="654" type="curve"/>
      <point x="489" y="636"/>
      <point x="496" y="621"/>
      <point x="505" y="621" type="curve" smooth="yes"/>
      <point x="516" y="621" type="line" smooth="yes"/>
      <point x="526" y="621"/>
      <point x="531" y="633"/>
      <point x="531" y="661" type="curve" smooth="yes"/>
      <point x="531" y="1136" type="line" smooth="yes"/>
      <point x="531" y="1351"/>
      <point x="474" y="1438"/>
      <point x="342" y="1438" type="curve" smooth="yes"/>
      <point x="216" y="1438"/>
      <point x="170" y="1371"/>
      <point x="143" y="1280" type="curve" smooth="yes"/>
      <point x="139" y="1268"/>
      <point x="137" y="1249"/>
      <point x="139" y="1244" type="curve"/>
      <point x="141" y="1234"/>
      <point x="173" y="1224"/>
      <point x="184" y="1222" type="curve" smooth="yes"/>
      <point x="194" y="1219"/>
      <point x="201" y="1224"/>
      <point x="208" y="1244" type="curve" smooth="yes"/>
      <point x="233" y="1318"/>
      <point x="254" y="1371"/>
      <point x="340" y="1371" type="curve" smooth="yes"/>
      <point x="433" y="1371"/>
      <point x="446" y="1276"/>
      <point x="446" y="1158" type="curve" smooth="yes"/>
      <point x="446" y="1112" type="line"/>
      <point x="402" y="1095"/>
      <point x="124" y="1100"/>
      <point x="124" y="814" type="curve" smooth="yes"/>
      <point x="124" y="692"/>
      <point x="173" y="614"/>
    </contour>
    <contour>
      <point x="300" y="680" type="curve" smooth="yes"/>
      <point x="226" y="680"/>
      <point x="199" y="734"/>
      <point x="199" y="822" type="curve" smooth="yes"/>
      <point x="199" y="926"/>
      <point x="237" y="1014"/>
      <point x="395" y="1045" type="curve" smooth="yes"/>
      <point x="397" y="1046"/>
      <point x="442" y="1052"/>
      <point x="443" y="1052" type="curve" smooth="yes"/>
      <point x="448" y="1052"/>
      <point x="448" y="1013"/>
      <point x="448" y="1002" type="curve" smooth="yes"/>
      <point x="448" y="825"/>
      <point x="402" y="680"/>
    </contour>
  </outline>
</glyph>
<glyph name="guillemotleft" format="1">
  <advance width="714"/>
  <unicode hex="00AB"/>
  <outline>
    <contour>
      <point x="376" y="235" type="curve" smooth="yes"/>
      <point x="380" y="234"/>
      <point x="383" y="239"/>
      <point x="384" y="258" type="curve" smooth="yes"/>
      <point x="385" y="258"/>
      <point x="387" y="285"/>
      <point x="387" y="290" type="curve" smooth="yes"/>
      <point x="387" y="324"/>
      <point x="384" y="354"/>
      <point x="368" y="370" type="curve"/>
      <point x="368" y="379"/>
      <point x="175" y="573"/>
      <point x="172" y="577" type="curve" smooth="yes"/>
      <point x="170" y="579"/>
      <point x="135" y="615"/>
      <point x="135" y="618" type="curve" smooth="yes"/>
      <point x="134" y="623"/>
      <point x="134" y="628"/>
      <point x="136" y="632" type="curve" smooth="yes"/>
      <point x="136" y="633"/>
      <point x="328" y="839"/>
      <point x="329" y="840" type="curve" smooth="yes"/>
      <point x="344" y="856"/>
      <point x="382" y="888"/>
      <point x="382" y="922" type="curve"/>
      <point x="385" y="926"/>
      <point x="387" y="947"/>
      <point x="387" y="956" type="curve" smooth="yes"/>
      <point x="387" y="977"/>
      <point x="384" y="1015"/>
      <point x="378" y="1015" type="curve"/>
      <point x="376" y="1019"/>
      <point x="374" y="1020"/>
      <point x="371" y="1020" type="curve" smooth="yes"/>
      <point x="369" y="1020"/>
      <point x="366" y="1020"/>
      <point x="364" y="1018" type="curve" smooth="yes"/>
      <point x="364" y="1018"/>
      <point x="144" y="785"/>
      <point x="143" y="785" type="curve" smooth="yes"/>
      <point x="124" y="765"/>
      <point x="67" y="701"/>
      <point x="67" y="682" type="curve"/>
      <point x="63" y="679"/>
      <point x="62" y="626"/>
      <point x="62" y="616" type="curve" smooth="yes"/>
      <point x="62" y="599"/>
      <point x="64" y="554"/>
      <point x="82" y="537" type="curve"/>
      <point x="82" y="528"/>
      <point x="305" y="304"/>
      <point x="308" y="301" type="curve" smooth="yes"/>
      <point x="313" y="296"/>
      <point x="372" y="235"/>
    </contour>
    <contour>
      <point x="647" y="234" type="curve" smooth="yes"/>
      <point x="648" y="234" type="line" smooth="yes"/>
      <point x="652" y="234"/>
      <point x="654" y="240"/>
      <point x="654" y="258" type="curve"/>
      <point x="656" y="258"/>
      <point x="657" y="285"/>
      <point x="657" y="290" type="curve" smooth="yes"/>
      <point x="657" y="324"/>
      <point x="654" y="354"/>
      <point x="638" y="370" type="curve"/>
      <point x="638" y="379"/>
      <point x="446" y="573"/>
      <point x="443" y="577" type="curve" smooth="yes"/>
      <point x="441" y="579"/>
      <point x="405" y="615"/>
      <point x="405" y="618" type="curve" smooth="yes"/>
      <point x="405" y="623"/>
      <point x="405" y="628"/>
      <point x="407" y="632" type="curve" smooth="yes"/>
      <point x="407" y="633"/>
      <point x="599" y="839"/>
      <point x="600" y="840" type="curve" smooth="yes"/>
      <point x="615" y="856"/>
      <point x="653" y="888"/>
      <point x="653" y="922" type="curve"/>
      <point x="655" y="926"/>
      <point x="657" y="947"/>
      <point x="657" y="956" type="curve" smooth="yes"/>
      <point x="657" y="977"/>
      <point x="655" y="1015"/>
      <point x="649" y="1015" type="curve"/>
      <point x="647" y="1019"/>
      <point x="645" y="1020"/>
      <point x="642" y="1020" type="curve" smooth="yes"/>
      <point x="640" y="1020"/>
      <point x="637" y="1020"/>
      <point x="635" y="1018" type="curve" smooth="yes"/>
      <point x="414" y="785" type="line" smooth="yes"/>
      <point x="395" y="765"/>
      <point x="337" y="701"/>
      <point x="337" y="682" type="curve"/>
      <point x="333" y="679"/>
      <point x="332" y="626"/>
      <point x="332" y="616" type="curve" smooth="yes"/>
      <point x="332" y="599"/>
      <point x="335" y="554"/>
      <point x="353" y="537" type="curve"/>
      <point x="353" y="528"/>
      <point x="575" y="304"/>
      <point x="579" y="301" type="curve"/>
      <point x="583" y="296"/>
      <point x="643" y="234"/>
    </contour>
  </outline>
</glyph>
<glyph name="logicalnot" format="1">
  <advance width="895"/>
  <unicode hex="00AC"/>
  <outline>
    <contour>
      <point x="713" y="288" type="curve" smooth="yes"/>
      <point x="740" y="288" type="line" smooth="yes"/>
      <point x="763" y="288"/>
      <point x="777" y="298"/>
      <point x="777" y="339" type="curve" smooth="yes"/>
      <point x="777" y="635" type="line" smooth="yes"/>
      <point x="777" y="669"/>
      <point x="759" y="677"/>
      <point x="737" y="677" type="curve" smooth="yes"/>
      <point x="171" y="677" type="line" smooth="yes"/>
      <point x="148" y="677"/>
      <point x="133" y="670"/>
      <point x="133" y="636" type="curve" smooth="yes"/>
      <point x="133" y="613" type="line" smooth="yes"/>
      <point x="133" y="579"/>
      <point x="148" y="572"/>
      <point x="171" y="572" type="curve" smooth="yes"/>
      <point x="654" y="572" type="line" smooth="yes"/>
      <point x="666" y="572"/>
      <point x="674" y="567"/>
      <point x="674" y="547" type="curve" smooth="yes"/>
      <point x="674" y="339" type="line" smooth="yes"/>
      <point x="674" y="298"/>
      <point x="689" y="288"/>
    </contour>
  </outline>
</glyph>
<glyph name="registered" format="1">
  <advance width="1348"/>
  <unicode hex="00AE"/>
  <outline>
    <contour>
      <point x="486" y="334" type="curve" smooth="yes"/>
      <point x="533" y="334" type="line" smooth="yes"/>
      <point x="543" y="334"/>
      <point x="548" y="340"/>
      <point x="548" y="360" type="curve" smooth="yes"/>
      <point x="548" y="700" type="line" smooth="yes"/>
      <point x="548" y="706"/>
      <point x="549" y="710"/>
      <point x="553" y="710" type="curve" smooth="yes"/>
      <point x="665" y="710" type="line" smooth="yes"/>
      <point x="748" y="710"/>
      <point x="803" y="701"/>
      <point x="807" y="600" type="curve"/>
      <point x="809" y="597"/>
      <point x="813" y="385"/>
      <point x="813" y="368" type="curve" smooth="yes"/>
      <point x="814" y="343"/>
      <point x="817" y="334"/>
      <point x="828" y="334" type="curve" smooth="yes"/>
      <point x="875" y="334" type="line" smooth="yes"/>
      <point x="882" y="334"/>
      <point x="888" y="343"/>
      <point x="888" y="365" type="curve" smooth="yes"/>
      <point x="888" y="571" type="line" smooth="yes"/>
      <point x="886" y="688"/>
      <point x="835" y="718"/>
      <point x="785" y="736" type="curve" smooth="yes"/>
      <point x="778" y="739"/>
      <point x="782" y="742"/>
      <point x="784" y="742" type="curve" smooth="yes"/>
      <point x="850" y="756"/>
      <point x="889" y="811"/>
      <point x="889" y="921" type="curve" smooth="yes"/>
      <point x="889" y="1110"/>
      <point x="775" y="1118"/>
      <point x="647" y="1118" type="curve" smooth="yes"/>
      <point x="486" y="1118" type="line" smooth="yes"/>
      <point x="476" y="1118"/>
      <point x="470" y="1114"/>
      <point x="470" y="1090" type="curve" smooth="yes"/>
      <point x="470" y="360" type="line" smooth="yes"/>
      <point x="470" y="340"/>
      <point x="476" y="334"/>
    </contour>
    <contour>
      <point x="552" y="777" type="line" smooth="yes"/>
      <point x="549" y="777"/>
      <point x="548" y="781"/>
      <point x="548" y="784" type="curve" smooth="yes"/>
      <point x="548" y="1049" type="line" smooth="yes"/>
      <point x="548" y="1053"/>
      <point x="549" y="1057"/>
      <point x="553" y="1057" type="curve" smooth="yes"/>
      <point x="651" y="1057" type="line" smooth="yes"/>
      <point x="755" y="1057"/>
      <point x="815" y="1055"/>
      <point x="815" y="920" type="curve" smooth="yes"/>
      <point x="815" y="792"/>
      <point x="774" y="777"/>
      <point x="672" y="777" type="curve" smooth="yes"/>
    </contour>
    <contour>
      <point x="676" y="64" type="curve" smooth="yes"/>
      <point x="310" y="64"/>
      <point x="182" y="400"/>
      <point x="182" y="715" type="curve" smooth="yes"/>
      <point x="182" y="1041"/>
      <point x="310" y="1375"/>
      <point x="676" y="1375" type="curve" smooth="yes"/>
      <point x="1042" y="1375"/>
      <point x="1170" y="1041"/>
      <point x="1170" y="715" type="curve" smooth="yes"/>
      <point x="1170" y="400"/>
      <point x="1042" y="64"/>
    </contour>
    <contour>
      <point x="674" y="-14" type="curve" smooth="yes"/>
      <point x="1083" y="-14"/>
      <point x="1257" y="331"/>
      <point x="1257" y="719" type="curve" smooth="yes"/>
      <point x="1257" y="1106"/>
      <point x="1083" y="1453"/>
      <point x="674" y="1453" type="curve" smooth="yes"/>
      <point x="267" y="1453"/>
      <point x="91" y="1106"/>
      <point x="91" y="719" type="curve" smooth="yes"/>
      <point x="91" y="331"/>
      <point x="267" y="-14"/>
    </contour>
  </outline>
</glyph>
<glyph name="macron" format="1">
  <advance width="648"/>
  <unicode hex="00AF"/>
  <outline>
    <contour>
      <point x="152" y="217" type="curve" smooth="yes"/>
      <point x="514" y="217" type="line" smooth="yes"/>
      <point x="531" y="217"/>
      <point x="541" y="221"/>
      <point x="541" y="249" type="curve" smooth="yes"/>
      <point x="541" y="264" type="line" smooth="yes"/>
      <point x="541" y="290"/>
      <point x="531" y="294"/>
      <point x="514" y="294" type="curve" smooth="yes"/>
      <point x="152" y="294" type="line" smooth="yes"/>
      <point x="136" y="294"/>
      <point x="125" y="290"/>
      <point x="125" y="262" type="curve" smooth="yes"/>
      <point x="125" y="247" type="line" smooth="yes"/>
      <point x="125" y="221"/>
      <point x="136" y="217"/>
    </contour>
  </outline>
</glyph>
<glyph name="acute" format="1">
  <advance width="596"/>
  <unicode hex="00B4"/>
  <outline>
    <contour>
      <point x="376" y="1167" type="curve" smooth="yes"/>
      <point x="396" y="1167" type="line" smooth="yes"/>
      <point x="410" y="1167"/>
      <point x="413" y="1189"/>
      <point x="416" y="1206" type="curve" smooth="yes"/>
      <point x="478" y="1538" type="line" smooth="yes"/>
      <point x="480" y="1550"/>
      <point x="482" y="1564"/>
      <point x="482" y="1575" type="curve" smooth="yes"/>
      <point x="482" y="1591"/>
      <point x="479" y="1603"/>
      <point x="472" y="1603" type="curve" smooth="yes"/>
      <point x="409" y="1603" type="line" smooth="yes"/>
      <point x="393" y="1603"/>
      <point x="386" y="1591"/>
      <point x="383" y="1548" type="curve" smooth="yes"/>
      <point x="362" y="1234" type="line" smooth="yes"/>
      <point x="361" y="1220"/>
      <point x="361" y="1208"/>
      <point x="361" y="1199" type="curve" smooth="yes"/>
      <point x="361" y="1172"/>
      <point x="366" y="1167"/>
    </contour>
  </outline>
</glyph>
<glyph name="paragraph" format="1">
  <advance width="1002"/>
  <unicode hex="00B6"/>
  <outline>
    <contour>
      <point x="530" y="-1" type="curve" smooth="yes"/>
      <point x="546" y="-1" type="line" smooth="yes"/>
      <point x="581" y="-1"/>
      <point x="588" y="25"/>
      <point x="588" y="68" type="curve" smooth="yes"/>
      <point x="588" y="863" type="line"/>
      <point x="745" y="863" type="line" smooth="yes"/>
      <point x="755" y="863"/>
      <point x="764" y="854"/>
      <point x="764" y="842" type="curve" smooth="yes"/>
      <point x="764" y="68" type="line" smooth="yes"/>
      <point x="764" y="25"/>
      <point x="771" y="-1"/>
      <point x="806" y="-1" type="curve" smooth="yes"/>
      <point x="819" y="-1" type="line" smooth="yes"/>
      <point x="854" y="-1"/>
      <point x="862" y="25"/>
      <point x="862" y="68" type="curve" smooth="yes"/>
      <point x="862" y="1337" type="line" smooth="yes"/>
      <point x="862" y="1359" type="line" smooth="yes"/>
      <point x="862" y="1388"/>
      <point x="859" y="1407"/>
      <point x="824" y="1415" type="curve" smooth="yes"/>
      <point x="784" y="1425"/>
      <point x="710" y="1438"/>
      <point x="547" y="1438" type="curve" smooth="yes"/>
      <point x="240" y="1438"/>
      <point x="109" y="1356"/>
      <point x="109" y="1149" type="curve" smooth="yes"/>
      <point x="109" y="933"/>
      <point x="292" y="863"/>
      <point x="467" y="863" type="curve" smooth="yes"/>
      <point x="488" y="863" type="line"/>
      <point x="488" y="68" type="line" smooth="yes"/>
      <point x="488" y="25"/>
      <point x="495" y="-1"/>
    </contour>
  </outline>
</glyph>
<glyph name="onequarter" format="1">
  <advance width="1727"/>
  <unicode hex="00BC"/>
  <outline>
    <contour>
      <point x="309" y="286" type="curve" smooth="yes"/>
      <point x="363" y="286" type="line" smooth="yes"/>
      <point x="374" y="286"/>
      <point x="381" y="306"/>
      <point x="381" y="340" type="curve" smooth="yes"/>
      <point x="381" y="1405" type="line" smooth="yes"/>
      <point x="381" y="1439"/>
      <point x="371" y="1438"/>
      <point x="352" y="1433" type="curve" smooth="yes"/>
      <point x="206" y="1393" type="line" smooth="yes"/>
      <point x="196" y="1390"/>
      <point x="188" y="1385"/>
      <point x="188" y="1371" type="curve" smooth="yes"/>
      <point x="188" y="1328" type="line" smooth="yes"/>
      <point x="188" y="1305"/>
      <point x="195" y="1302"/>
      <point x="206" y="1305" type="curve" smooth="yes"/>
      <point x="280" y="1324" type="line" smooth="yes"/>
      <point x="286" y="1326"/>
      <point x="291" y="1321"/>
      <point x="291" y="1305" type="curve" smooth="yes"/>
      <point x="291" y="340" type="line" smooth="yes"/>
      <point x="291" y="306"/>
      <point x="298" y="286"/>
    </contour>
    <contour>
      <point x="554" y="122" type="curve" smooth="yes"/>
      <point x="601" y="122" type="line" smooth="yes"/>
      <point x="606" y="122"/>
      <point x="613" y="133"/>
      <point x="615" y="149" type="curve" smooth="yes"/>
      <point x="855" y="1577" type="line" smooth="yes"/>
      <point x="857" y="1589"/>
      <point x="854" y="1604"/>
      <point x="849" y="1604" type="curve" smooth="yes"/>
      <point x="803" y="1604" type="line" smooth="yes"/>
      <point x="797" y="1604"/>
      <point x="791" y="1593"/>
      <point x="789" y="1577" type="curve" smooth="yes"/>
      <point x="548" y="149" type="line" smooth="yes"/>
      <point x="547" y="146"/>
      <point x="547" y="144"/>
      <point x="547" y="141" type="curve" smooth="yes"/>
      <point x="547" y="131"/>
      <point x="551" y="122"/>
    </contour>
    <contour>
      <point x="1370" y="286" type="curve" smooth="yes"/>
      <point x="1399" y="286" type="line" smooth="yes"/>
      <point x="1417" y="286"/>
      <point x="1427" y="293"/>
      <point x="1427" y="327" type="curve" smooth="yes"/>
      <point x="1427" y="513" type="line"/>
      <point x="1556" y="513" type="line" smooth="yes"/>
      <point x="1587" y="513"/>
      <point x="1598" y="518"/>
      <point x="1598" y="547" type="curve" smooth="yes"/>
      <point x="1598" y="565" type="line" smooth="yes"/>
      <point x="1598" y="594"/>
      <point x="1587" y="598"/>
      <point x="1556" y="598" type="curve" smooth="yes"/>
      <point x="1427" y="598" type="line"/>
      <point x="1427" y="1394" type="line" smooth="yes"/>
      <point x="1427" y="1428"/>
      <point x="1417" y="1437"/>
      <point x="1399" y="1437" type="curve" smooth="yes"/>
      <point x="1370" y="1437" type="line" smooth="yes"/>
      <point x="1352" y="1437"/>
      <point x="1342" y="1428"/>
      <point x="1342" y="1394" type="curve" smooth="yes"/>
      <point x="1342" y="598" type="line"/>
      <point x="1107" y="598" type="line" smooth="yes"/>
      <point x="1092" y="598"/>
      <point x="1089" y="606"/>
      <point x="1091" y="617" type="curve" smooth="yes"/>
      <point x="1183" y="1383" type="line" smooth="yes"/>
      <point x="1184" y="1388"/>
      <point x="1185" y="1394"/>
      <point x="1185" y="1401" type="curve" smooth="yes"/>
      <point x="1185" y="1418"/>
      <point x="1181" y="1437"/>
      <point x="1163" y="1437" type="curve" smooth="yes"/>
      <point x="1131" y="1437" type="line" smooth="yes"/>
      <point x="1111" y="1437"/>
      <point x="1107" y="1417"/>
      <point x="1102" y="1383" type="curve" smooth="yes"/>
      <point x="994" y="567" type="line" smooth="yes"/>
      <point x="993" y="563"/>
      <point x="993" y="560"/>
      <point x="993" y="557" type="curve" smooth="yes"/>
      <point x="993" y="528"/>
      <point x="1015" y="513"/>
      <point x="1043" y="513" type="curve" smooth="yes"/>
      <point x="1342" y="513" type="line"/>
      <point x="1342" y="327" type="line" smooth="yes"/>
      <point x="1342" y="293"/>
      <point x="1352" y="286"/>
    </contour>
  </outline>
</glyph>
<glyph name="oslash" format="1">
  <advance width="702"/>
  <unicode hex="00F8"/>
  <outline>
    <component base="o"/>
    <contour>
      <point x="154" y="-74" type="line" smooth="yes"/>
      <point x="155" y="-74" type="line" smooth="yes"/>
      <point x="159" y="-74"/>
      <point x="164" y="-67"/>
      <point x="168" y="-55" type="curve" smooth="yes"/>
      <point x="597" y="1063" type="line" smooth="yes"/>
      <point x="600" y="1069"/>
      <point x="602" y="1075"/>
      <point x="602" y="1080" type="curve" smooth="yes"/>
      <point x="602" y="1083"/>
      <point x="601" y="1085"/>
      <point x="600" y="1085" type="curve" smooth="yes"/>
      <point x="567" y="1098" type="line" smooth="yes"/>
      <point x="566" y="1098" type="line" smooth="yes"/>
      <point x="563" y="1098"/>
      <point x="558" y="1090"/>
      <point x="552" y="1079" type="curve"/>
      <point x="123" y="-37" type="line" smooth="yes"/>
      <point x="121" y="-44"/>
      <point x="119" y="-52"/>
      <point x="119" y="-56" type="curve" smooth="yes"/>
      <point x="119" y="-58"/>
      <point x="119" y="-59"/>
      <point x="120" y="-59" type="curve" smooth="yes"/>
    </contour>
  </outline>
</glyph>
<glyph name="dcroat" format="1">
  <advance width="718"/>
  <unicode hex="0111"/>
  <outline>
    <contour>
      <point x="328" y="-12" type="curve" smooth="yes"/>
      <point x="430" y="-12"/>
      <point x="497" y="55"/>
      <point x="539" y="224" type="curve"/>
      <point x="540" y="221"/>
      <point x="542" y="213"/>
      <point x="543" y="201" type="curve" smooth="yes"/>
      <point x="546" y="173"/>
      <point x="555" y="98"/>
      <point x="561" y="62" type="curve" smooth="yes"/>
      <point x="565" y="36"/>
      <point x="572" y="15"/>
      <point x="580" y="7" type="curve"/>
      <point x="582" y="3"/>
      <point x="600" y="0"/>
      <point x="600" y="0" type="curve"/>
      <point x="615" y="0"/>
      <point x="620" y="24"/>
      <point x="620" y="67" type="curve" smooth="yes"/>
      <point x="620" y="1186" type="line"/>
      <point x="688" y="1186" type="line" smooth="yes"/>
      <point x="704" y="1186"/>
      <point x="715" y="1189"/>
      <point x="715" y="1216" type="curve" smooth="yes"/>
      <point x="715" y="1231" type="line" smooth="yes"/>
      <point x="715" y="1256"/>
      <point x="704" y="1260"/>
      <point x="688" y="1260" type="curve" smooth="yes"/>
      <point x="620" y="1260" type="line"/>
      <point x="620" y="1370" type="line" smooth="yes"/>
      <point x="620" y="1413"/>
      <point x="610" y="1435"/>
      <point x="596" y="1435" type="curve" smooth="yes"/>
      <point x="537" y="1435" type="line" smooth="yes"/>
      <point x="521" y="1435"/>
      <point x="512" y="1413"/>
      <point x="512" y="1370" type="curve" smooth="yes"/>
      <point x="512" y="1260" type="line"/>
      <point x="309" y="1260" type="line" smooth="yes"/>
      <point x="293" y="1260"/>
      <point x="282" y="1256"/>
      <point x="282" y="1229" type="curve" smooth="yes"/>
      <point x="282" y="1215" type="line" smooth="yes"/>
      <point x="282" y="1189"/>
      <point x="293" y="1186"/>
      <point x="309" y="1186" type="curve" smooth="yes"/>
      <point x="512" y="1186" type="line"/>
      <point x="512" y="852" type="line" smooth="yes"/>
      <point x="512" y="850"/>
      <point x="512" y="830"/>
      <point x="511" y="830" type="curve" smooth="yes"/>
      <point x="510" y="834"/>
      <point x="507" y="839"/>
      <point x="506" y="842" type="curve" smooth="yes"/>
      <point x="465" y="962"/>
      <point x="401" y="1019"/>
      <point x="327" y="1019" type="curve" smooth="yes"/>
      <point x="196" y="1019"/>
      <point x="78" y="948"/>
      <point x="78" y="504" type="curve" smooth="yes"/>
      <point x="78" y="51"/>
      <point x="212" y="-12"/>
    </contour>
    <contour>
      <point x="512" y="506" type="curve" smooth="yes"/>
      <point x="512" y="242"/>
      <point x="443" y="73"/>
      <point x="345" y="73" type="curve" smooth="yes"/>
      <point x="249" y="73"/>
      <point x="186" y="162"/>
      <point x="186" y="507" type="curve" smooth="yes"/>
      <point x="186" y="864"/>
      <point x="258" y="934"/>
      <point x="346" y="934" type="curve" smooth="yes"/>
      <point x="438" y="934"/>
      <point x="512" y="783"/>
    </contour>
  </outline>
</glyph>
<glyph name="hbar" format="1">
  <advance width="684"/>
  <unicode hex="0127"/>
  <outline>
    <contour>
      <point x="122" y="0" type="curve" smooth="yes"/>
      <point x="184" y="0" type="line" smooth="yes"/>
      <point x="199" y="0"/>
      <point x="207" y="8"/>
      <point x="207" y="51" type="curve" smooth="yes"/>
      <point x="207" y="605" type="line" smooth="yes"/>
      <point x="207" y="770"/>
      <point x="293" y="934"/>
      <point x="386" y="934" type="curve" smooth="yes"/>
      <point x="464" y="934"/>
      <point x="488" y="839"/>
      <point x="488" y="621" type="curve" smooth="yes"/>
      <point x="488" y="51" type="line" smooth="yes"/>
      <point x="488" y="8"/>
      <point x="496" y="0"/>
      <point x="511" y="0" type="curve" smooth="yes"/>
      <point x="573" y="0" type="line" smooth="yes"/>
      <point x="586" y="0"/>
      <point x="596" y="8"/>
      <point x="596" y="51" type="curve" smooth="yes"/>
      <point x="596" y="591" type="line" smooth="yes"/>
      <point x="596" y="931"/>
      <point x="534" y="1019"/>
      <point x="409" y="1019" type="curve" smooth="yes"/>
      <point x="343" y="1019"/>
      <point x="260" y="974"/>
      <point x="215" y="835" type="curve" smooth="yes"/>
      <point x="214" y="832"/>
      <point x="212" y="831"/>
      <point x="210" y="831" type="curve" smooth="yes"/>
      <point x="208" y="831"/>
      <point x="207" y="832"/>
      <point x="207" y="839" type="curve" smooth="yes"/>
      <point x="207" y="1186" type="line"/>
      <point x="447" y="1186" type="line" smooth="yes"/>
      <point x="463" y="1186"/>
      <point x="474" y="1189"/>
      <point x="474" y="1216" type="curve" smooth="yes"/>
      <point x="474" y="1231" type="line" smooth="yes"/>
      <point x="474" y="1256"/>
      <point x="463" y="1260"/>
      <point x="447" y="1260" type="curve" smooth="yes"/>
      <point x="207" y="1260" type="line"/>
      <point x="207" y="1383" type="line" smooth="yes"/>
      <point x="207" y="1426"/>
      <point x="198" y="1438"/>
      <point x="183" y="1438" type="curve" smooth="yes"/>
      <point x="122" y="1438" type="line" smooth="yes"/>
      <point x="107" y="1438"/>
      <point x="99" y="1426"/>
      <point x="99" y="1383" type="curve" smooth="yes"/>
      <point x="99" y="1260" type="line"/>
      <point x="41" y="1260" type="line" smooth="yes"/>
      <point x="25" y="1260"/>
      <point x="14" y="1256"/>
      <point x="14" y="1229" type="curve" smooth="yes"/>
      <point x="14" y="1215" type="line" smooth="yes"/>
      <point x="14" y="1189"/>
      <point x="25" y="1186"/>
      <point x="41" y="1186" type="curve" smooth="yes"/>
      <point x="99" y="1186" type="line"/>
      <point x="99" y="51" type="line" smooth="yes"/>
      <point x="99" y="8"/>
      <point x="107" y="0"/>
    </contour>
  </outline>
</glyph>
<glyph name="kgreenlandic" format="1">
  <advance width="654"/>
  <unicode hex="0138"/>
  <outline>
    <contour>
      <point x="123" y="0" type="curve" smooth="yes"/>
      <point x="181" y="0" type="line" smooth="yes"/>
      <point x="196" y="0"/>
      <point x="205" y="22"/>
      <point x="205" y="65" type="curve" smooth="yes"/>
      <point x="205" y="302" type="line" smooth="yes"/>
      <point x="205" y="315"/>
      <point x="207" y="325"/>
      <point x="210" y="332" type="curve"/>
      <point x="212" y="333"/>
      <point x="277" y="450"/>
      <point x="298" y="482" type="curve" smooth="yes"/>
      <point x="301" y="486"/>
      <point x="303" y="487"/>
      <point x="304" y="487" type="curve" smooth="yes"/>
      <point x="308" y="487"/>
      <point x="310" y="483"/>
      <point x="311" y="479" type="curve" smooth="yes"/>
      <point x="498" y="61" type="line"/>
      <point x="513" y="25"/>
      <point x="527" y="0"/>
      <point x="540" y="0" type="curve" smooth="yes"/>
      <point x="610" y="0" type="line" smooth="yes"/>
      <point x="617" y="0"/>
      <point x="622" y="10"/>
      <point x="622" y="24" type="curve" smooth="yes"/>
      <point x="622" y="35"/>
      <point x="619" y="50"/>
      <point x="612" y="64" type="curve" smooth="yes"/>
      <point x="382" y="544" type="line" smooth="yes"/>
      <point x="382" y="546"/>
      <point x="378" y="550"/>
      <point x="378" y="555" type="curve" smooth="yes"/>
      <point x="378" y="559"/>
      <point x="380" y="563"/>
      <point x="382" y="567" type="curve" smooth="yes"/>
      <point x="596" y="943" type="line" smooth="yes"/>
      <point x="606" y="960"/>
      <point x="610" y="975"/>
      <point x="610" y="987" type="curve" smooth="yes"/>
      <point x="610" y="998"/>
      <point x="606" y="1006"/>
      <point x="600" y="1006" type="curve" smooth="yes"/>
      <point x="538" y="1006" type="line" smooth="yes"/>
      <point x="515" y="1006"/>
      <point x="505" y="990"/>
      <point x="478" y="943" type="curve" smooth="yes"/>
      <point x="212" y="473" type="line" smooth="yes"/>
      <point x="209" y="470" type="line"/>
      <point x="206" y="470"/>
      <point x="205" y="474"/>
      <point x="205" y="481" type="curve" smooth="yes"/>
      <point x="205" y="941" type="line" smooth="yes"/>
      <point x="205" y="984"/>
      <point x="196" y="1006"/>
      <point x="181" y="1006" type="curve" smooth="yes"/>
      <point x="123" y="1006" type="line" smooth="yes"/>
      <point x="109" y="1006"/>
      <point x="100" y="984"/>
      <point x="100" y="941" type="curve" smooth="yes"/>
      <point x="100" y="65" type="line" smooth="yes"/>
      <point x="100" y="22"/>
      <point x="109" y="0"/>
    </contour>
  </outline>
</glyph>
<glyph name="circumflex" format="1">
  <advance width="298"/>
  <unicode hex="02C6"/>
  <outline>
    <contour>
      <point x="62" y="1235" type="curve" smooth="yes"/>
      <point x="72" y="1235"/>
      <point x="80" y="1242"/>
      <point x="86" y="1253" type="curve" smooth="yes"/>
      <point x="139" y="1363" type="line" smooth="yes"/>
      <point x="143" y="1370"/>
      <point x="146" y="1375"/>
      <point x="149" y="1375" type="curve" smooth="yes"/>
      <point x="152" y="1375"/>
      <point x="155" y="1370"/>
      <point x="158" y="1363" type="curve" smooth="yes"/>
      <point x="212" y="1253" type="line" smooth="yes"/>
      <point x="218" y="1242"/>
      <point x="226" y="1235"/>
      <point x="236" y="1235" type="curve" smooth="yes"/>
      <point x="249" y="1235"/>
      <point x="271" y="1243"/>
      <point x="271" y="1254" type="curve"/>
      <point x="274" y="1254"/>
      <point x="275" y="1258"/>
      <point x="275" y="1262" type="curve" smooth="yes"/>
      <point x="275" y="1266"/>
      <point x="274" y="1271"/>
      <point x="273" y="1275" type="curve" smooth="yes"/>
      <point x="212" y="1433" type="line" smooth="yes"/>
      <point x="193" y="1482"/>
      <point x="179" y="1502"/>
      <point x="158" y="1502" type="curve" smooth="yes"/>
      <point x="139" y="1502" type="line" smooth="yes"/>
      <point x="119" y="1502"/>
      <point x="105" y="1482"/>
      <point x="86" y="1433" type="curve" smooth="yes"/>
      <point x="25" y="1275" type="line" smooth="yes"/>
      <point x="24" y="1271"/>
      <point x="23" y="1267"/>
      <point x="23" y="1263" type="curve" smooth="yes"/>
      <point x="23" y="1259"/>
      <point x="24" y="1255"/>
      <point x="27" y="1254" type="curve"/>
      <point x="27" y="1243"/>
      <point x="49" y="1235"/>
    </contour>
  </outline>
</glyph>
<glyph name="emdash" format="1">
  <advance width="2048"/>
  <unicode hex="2014"/>
  <outline>
    <contour>
      <point x="115" y="633" type="curve" smooth="yes"/>
      <point x="1930" y="633" type="line" smooth="yes"/>
      <point x="1949" y="633"/>
      <point x="1962" y="642"/>
      <point x="1962" y="672" type="curve" smooth="yes"/>
      <point x="1962" y="694" type="line" smooth="yes"/>
      <point x="1962" y="723"/>
      <point x="1949" y="732"/>
      <point x="1930" y="732" type="curve" smooth="yes"/>
      <point x="115" y="732" type="line" smooth="yes"/>
      <point x="96" y="732"/>
      <point x="82" y="723"/>
      <point x="82" y="693" type="curve" smooth="yes"/>
      <point x="82" y="670" type="line" smooth="yes"/>
      <point x="82" y="642"/>
      <point x="96" y="633"/>
    </contour>
  </outline>
</glyph>
<glyph name="quoteleft" format="1">
  <advance width="310"/>
  <unicode hex="2018"/>
  <outline>
    <contour>
      <point x="115" y="895" type="curve" smooth="yes"/>
      <point x="198" y="895" type="line" smooth="yes"/>
      <point x="212" y="895"/>
      <point x="219" y="914"/>
      <point x="219" y="957" type="curve" smooth="yes"/>
      <point x="219" y="1157" type="line" smooth="yes"/>
      <point x="219" y="1195"/>
      <point x="211" y="1209"/>
      <point x="198" y="1209" type="curve" smooth="yes"/>
      <point x="165" y="1209" type="line" smooth="yes"/>
      <point x="160" y="1209"/>
      <point x="159" y="1220"/>
      <point x="159" y="1236" type="curve" smooth="yes"/>
      <point x="159" y="1268"/>
      <point x="172" y="1344"/>
      <point x="197" y="1386" type="curve"/>
      <point x="214" y="1412"/>
      <point x="219" y="1407"/>
      <point x="219" y="1461" type="curve" smooth="yes"/>
      <point x="219" y="1473" type="line" smooth="yes"/>
      <point x="219" y="1504"/>
      <point x="210" y="1519"/>
      <point x="200" y="1519" type="curve" smooth="yes"/>
      <point x="198" y="1519"/>
      <point x="197" y="1519"/>
      <point x="195" y="1518" type="curve" smooth="yes"/>
      <point x="148" y="1495"/>
      <point x="88" y="1365"/>
      <point x="88" y="1128" type="curve" smooth="yes"/>
      <point x="88" y="968" type="line" smooth="yes"/>
      <point x="88" y="925"/>
      <point x="99" y="895"/>
    </contour>
  </outline>
</glyph>
<glyph name="quoteright" format="1">
  <advance width="304"/>
  <unicode hex="2019"/>
  <outline>
    <contour>
      <point x="114" y="897" type="curve" smooth="yes"/>
      <point x="162" y="920"/>
      <point x="222" y="1050"/>
      <point x="222" y="1287" type="curve" smooth="yes"/>
      <point x="222" y="1447" type="line" smooth="yes"/>
      <point x="222" y="1490"/>
      <point x="210" y="1520"/>
      <point x="195" y="1520" type="curve" smooth="yes"/>
      <point x="112" y="1520" type="line" smooth="yes"/>
      <point x="97" y="1520"/>
      <point x="91" y="1500"/>
      <point x="91" y="1457" type="curve" smooth="yes"/>
      <point x="91" y="1258" type="line" smooth="yes"/>
      <point x="91" y="1220"/>
      <point x="99" y="1206"/>
      <point x="112" y="1206" type="curve" smooth="yes"/>
      <point x="145" y="1206" type="line" smooth="yes"/>
      <point x="151" y="1206"/>
      <point x="151" y="1195"/>
      <point x="151" y="1179" type="curve" smooth="yes"/>
      <point x="151" y="1147"/>
      <point x="138" y="1070"/>
      <point x="113" y="1029" type="curve" smooth="yes"/>
      <point x="96" y="1003"/>
      <point x="91" y="1008"/>
      <point x="91" y="954" type="curve" smooth="yes"/>
      <point x="91" y="942" type="line" smooth="yes"/>
      <point x="91" y="911"/>
      <point x="99" y="896"/>
      <point x="109" y="896" type="curve" smooth="yes"/>
      <point x="111" y="896"/>
      <point x="112" y="896"/>
    </contour>
  </outline>
</glyph>
<glyph name="bullet" format="1">
  <advance width="1022"/>
  <unicode hex="2022"/>
  <outline>
    <contour>
      <point x="511" y="704" type="curve" smooth="yes"/>
      <point x="750" y="704"/>
      <point x="839" y="881"/>
      <point x="839" y="1033" type="curve" smooth="yes"/>
      <point x="839" y="1195"/>
      <point x="750" y="1367"/>
      <point x="511" y="1367" type="curve" smooth="yes"/>
      <point x="271" y="1367"/>
      <point x="181" y="1195"/>
      <point x="181" y="1033" type="curve" smooth="yes"/>
      <point x="181" y="881"/>
      <point x="271" y="704"/>
    </contour>
  </outline>
</glyph>
<glyph name="minus" format="1">
  <advance width="689"/>
  <unicode hex="2212"/>
  <outline>
    <contour>
      <point x="104" y="633" type="curve" smooth="yes"/>
      <point x="585" y="633" type="line" smooth="yes"/>
      <point x="604" y="633"/>
      <point x="618" y="642"/>
      <point x="618" y="672" type="curve" smooth="yes"/>
      <point x="618" y="694" type="line" smooth="yes"/>
      <point x="618" y="723"/>
      <point x="604" y="732"/>
      <point x="585" y="732" type="curve" smooth="yes"/>
      <point x="104" y="732" type="line" smooth="yes"/>
      <point x="85" y="732"/>
      <point x="71" y="723"/>
      <point x="71" y="693" type="curve" smooth="yes"/>
      <point x="71" y="670" type="line" smooth="yes"/>
      <point x="71" y="642"/>
      <point x="85" y="633"/>
    </contour>
  </outline>
</glyph>
<glyph name="uniFB00" format="1">
  <advance width="868"/>
  <unicode hex="FB00"/>
  <outline>
    <contour>
      <point x="589" y="0" type="curve" smooth="yes"/>
      <point x="644" y="0" type="line" smooth="yes"/>
      <point x="658" y="0"/>
      <point x="669" y="29"/>
      <point x="669" y="72" type="curve" smooth="yes"/>
      <point x="669" y="887" type="line" smooth="yes"/>
      <point x="669" y="907"/>
      <point x="671" y="912"/>
      <point x="678" y="912" type="curve" smooth="yes"/>
      <point x="812" y="912" type="line" smooth="yes"/>
      <point x="827" y="912"/>
      <point x="834" y="916"/>
      <point x="834" y="940" type="curve" smooth="yes"/>
      <point x="834" y="980" type="line" smooth="yes"/>
      <point x="834" y="1003"/>
      <point x="827" y="1006"/>
      <point x="812" y="1006" type="curve" smooth="yes"/>
      <point x="672" y="1006" type="line" smooth="yes"/>
      <point x="671" y="1006"/>
      <point x="669" y="1009"/>
      <point x="669" y="1012" type="curve" smooth="yes"/>
      <point x="669" y="1093" type="line" smooth="yes"/>
      <point x="669" y="1297"/>
      <point x="685" y="1344"/>
      <point x="775" y="1344" type="curve" smooth="yes"/>
      <point x="828" y="1344" type="line" smooth="yes"/>
      <point x="841" y="1344"/>
      <point x="841" y="1347"/>
      <point x="841" y="1380" type="curve" smooth="yes"/>
      <point x="841" y="1409" type="line" smooth="yes"/>
      <point x="841" y="1437"/>
      <point x="830" y="1436"/>
      <point x="821" y="1437" type="curve" smooth="yes"/>
      <point x="817" y="1438"/>
      <point x="769" y="1439"/>
      <point x="760" y="1439" type="curve" smooth="yes"/>
      <point x="609" y="1439"/>
      <point x="563" y="1368"/>
      <point x="563" y="1036" type="curve" smooth="yes"/>
      <point x="563" y="1014"/>
      <point x="563" y="1006"/>
      <point x="555" y="1006" type="curve" smooth="yes"/>
      <point x="238" y="1006" type="line" smooth="yes"/>
      <point x="237" y="1006"/>
      <point x="235" y="1009"/>
      <point x="235" y="1012" type="curve" smooth="yes"/>
      <point x="235" y="1093" type="line" smooth="yes"/>
      <point x="235" y="1297"/>
      <point x="251" y="1344"/>
      <point x="341" y="1344" type="curve" smooth="yes"/>
      <point x="394" y="1344" type="line" smooth="yes"/>
      <point x="407" y="1344"/>
      <point x="407" y="1347"/>
      <point x="407" y="1380" type="curve" smooth="yes"/>
      <point x="407" y="1409" type="line" smooth="yes"/>
      <point x="407" y="1437"/>
      <point x="396" y="1436"/>
      <point x="387" y="1437" type="curve" smooth="yes"/>
      <point x="383" y="1438"/>
      <point x="335" y="1439"/>
      <point x="326" y="1439" type="curve" smooth="yes"/>
      <point x="175" y="1439"/>
      <point x="129" y="1368"/>
      <point x="129" y="1036" type="curve" smooth="yes"/>
      <point x="129" y="1014"/>
      <point x="129" y="1006"/>
      <point x="121" y="1006" type="curve" smooth="yes"/>
      <point x="71" y="1006" type="line" smooth="yes"/>
      <point x="56" y="1006"/>
      <point x="47" y="1001"/>
      <point x="47" y="977" type="curve" smooth="yes"/>
      <point x="47" y="940" type="line" smooth="yes"/>
      <point x="47" y="915"/>
      <point x="56" y="912"/>
      <point x="71" y="912" type="curve" smooth="yes"/>
      <point x="121" y="912" type="line" smooth="yes"/>
      <point x="129" y="912"/>
      <point x="129" y="907"/>
      <point x="129" y="887" type="curve" smooth="yes"/>
      <point x="129" y="72" type="line" smooth="yes"/>
      <point x="129" y="29"/>
      <point x="141" y="0"/>
      <point x="155" y="0" type="curve" smooth="yes"/>
      <point x="210" y="0" type="line" smooth="yes"/>
      <point x="224" y="0"/>
      <point x="235" y="29"/>
      <point x="235" y="72" type="curve" smooth="yes"/>
      <point x="235" y="887" type="line" smooth="yes"/>
      <point x="235" y="907"/>
      <point x="237" y="912"/>
      <point x="244" y="912" type="curve" smooth="yes"/>
      <point x="555" y="912" type="line" smooth="yes"/>
      <point x="563" y="912"/>
      <point x="563" y="907"/>
      <point x="563" y="887" type="curve" smooth="yes"/>
      <point x="563" y="72" type="line" smooth="yes"/>
      <point x="563" y="29"/>
      <point x="575" y="0"/>
    </contour>
  </outline>
</glyph>
<glyph name="uniFB02" format="1">
  <advance width="743"/>
  <unicode hex="FB02"/>
  <outline>
    <contour>
      <point x="566" y="0" type="curve" smooth="yes"/>
      <point x="626" y="0" type="line" smooth="yes"/>
      <point x="641" y="0"/>
      <point x="649" y="20"/>
      <point x="649" y="63" type="curve" smooth="yes"/>
      <point x="649" y="1373" type="line" smooth="yes"/>
      <point x="649" y="1416"/>
      <point x="641" y="1438"/>
      <point x="626" y="1438" type="curve" smooth="yes"/>
      <point x="326" y="1438" type="line" smooth="yes"/>
      <point x="175" y="1438"/>
      <point x="129" y="1368"/>
      <point x="129" y="1036" type="curve" smooth="yes"/>
      <point x="129" y="1014"/>
      <point x="129" y="1006"/>
      <point x="121" y="1006" type="curve" smooth="yes"/>
      <point x="71" y="1006" type="line" smooth="yes"/>
      <point x="56" y="1006"/>
      <point x="47" y="1001"/>
      <point x="47" y="977" type="curve" smooth="yes"/>
      <point x="47" y="940" type="line" smooth="yes"/>
      <point x="47" y="915"/>
      <point x="56" y="912"/>
      <point x="71" y="912" type="curve" smooth="yes"/>
      <point x="121" y="912" type="line" smooth="yes"/>
      <point x="129" y="912"/>
      <point x="129" y="907"/>
      <point x="129" y="887" type="curve" smooth="yes"/>
      <point x="129" y="72" type="line" smooth="yes"/>
      <point x="129" y="29"/>
      <point x="141" y="0"/>
      <point x="155" y="0" type="curve" smooth="yes"/>
      <point x="210" y="0" type="line" smooth="yes"/>
      <point x="224" y="0"/>
      <point x="235" y="29"/>
      <point x="235" y="72" type="curve" smooth="yes"/>
      <point x="235" y="887" type="line" smooth="yes"/>
      <point x="235" y="907"/>
      <point x="237" y="912"/>
      <point x="244" y="912" type="curve" smooth="yes"/>
      <point x="378" y="912" type="line" smooth="yes"/>
      <point x="393" y="912"/>
      <point x="400" y="916"/>
      <point x="400" y="940" type="curve" smooth="yes"/>
      <point x="400" y="980" type="line" smooth="yes"/>
      <point x="400" y="1003"/>
      <point x="393" y="1006"/>
      <point x="378" y="1006" type="curve" smooth="yes"/>
      <point x="238" y="1006" type="line" smooth="yes"/>
      <point x="237" y="1006"/>
      <point x="235" y="1009"/>
      <point x="235" y="1012" type="curve" smooth="yes"/>
      <point x="235" y="1093" type="line" smooth="yes"/>
      <point x="235" y="1297"/>
      <point x="251" y="1345"/>
      <point x="341" y="1345" type="curve" smooth="yes"/>
      <point x="543" y="1345" type="line"/>
      <point x="543" y="63" type="line" smooth="yes"/>
      <point x="543" y="20"/>
      <point x="552" y="0"/>
    </contour>
  </outline>
</glyph>
